# xmcd
#
# Track frame offsets: 
#        150
#        19785
#        38269
#        51739
#
# Disc length: 904 seconds
#
# Revision: 0
# Processed by: cddbd v1.5.2PL0 Copyright (c) Steve Scherf et al.
# Submitted via: ExactAudioCopy v1.0b3
#
DISCID=2a038604
DTITLE=Manzy Lowry - Lasting Impressions
DYEAR=2012
DGENRE=country
TTITLE0=Sangria Mornings
TTITLE1=Lasting Impressions
TTITLE2=Desert Friends
TTITLE3=Love is a Battlefield
EXTD=
EXTT0=
EXTT1=
EXTT2=
EXTT3=
PLAYORDER=
